HIERARCHY
ROOT hip
{
	OFFSET 0.000000 0.000000 0.000000 
	CHANNELS 6 Xposition Yposition Zposition Xrotation Zrotation Yrotation
	JOINT abdomen
	{
		OFFSET 0.000000 3.402643 0.000000 
		CHANNELS 3 Xrotation Zrotation Yrotation
		JOINT chest
		{
			OFFSET 0.000000 8.438565 -0.680529 
			CHANNELS 3 Xrotation Zrotation Yrotation
			JOINT neck
			{
				OFFSET 0.000000 10.207942 -0.272212 
				CHANNELS 3 Xrotation Zrotation Yrotation
				JOINT head
				{
					OFFSET 0.000000 3.130431 0.000000 
					CHANNELS 3 Xrotation Zrotation Yrotation
					End Site
					{
						OFFSET 0.000000 3.130435 0.000000 
					}
				}
			}
			JOINT lCollar
			{
				OFFSET 3.470700 6.669187 -0.816635 
				CHANNELS 3 Yrotation Zrotation Xrotation
				JOINT lShldr
				{
					OFFSET 3.198488 0.000000 0.000000 
					CHANNELS 3 Zrotation Yrotation Xrotation
					JOINT lForeArm
					{
						OFFSET 10.139888 0.000000 0.000000 
						CHANNELS 3 Yrotation Zrotation Xrotation
						JOINT lHand
						{
							OFFSET 8.370511 0.000000 0.000000 
							CHANNELS 3 Zrotation Yrotation Xrotation
							End Site
							{
								OFFSET 4.083176 0.000000 0.000000 
							}
						}
					}
				}
			}
			JOINT rCollar
			{
				OFFSET -3.470700 6.669187 -0.816635 
				CHANNELS 3 Yrotation Zrotation Xrotation
				JOINT rShldr
				{
					OFFSET -3.198488 0.000000 0.000000 
					CHANNELS 3 Zrotation Yrotation Xrotation
					JOINT rForeArm
					{
						OFFSET -10.139888 0.000000 0.000000 
						CHANNELS 3 Yrotation Zrotation Xrotation
						JOINT rHand
						{
							OFFSET -8.370511 0.000000 0.000000 
							CHANNELS 3 Zrotation Yrotation Xrotation
							End Site
							{
								OFFSET -4.083176 0.000000 0.000000 
							}
						}
					}
				}
			}
		}
	}
	JOINT lThigh
	{
		OFFSET 5.308129 -1.633274 1.361059 
		CHANNELS 3 Xrotation Zrotation Yrotation
		JOINT lShin
		{
			OFFSET -2.041588 -20.007561 0.000000 
			CHANNELS 3 Xrotation Zrotation Yrotation
			JOINT lFoot
			{
				OFFSET 0.000000 -19.190928 -1.224953 
				CHANNELS 3 Xrotation Yrotation Zrotation
				End Site
				{
					OFFSET 0.000000 -2.449906 4.627600 
				}
			}
		}
	}
	JOINT rThigh
	{
		OFFSET -5.308129 -1.633274 1.361059 
		CHANNELS 3 Xrotation Zrotation Yrotation
		JOINT rShin
		{
			OFFSET 2.041588 -20.007561 0.000000 
			CHANNELS 3 Xrotation Zrotation Yrotation
			JOINT rFoot
			{
				OFFSET 0.000000 -19.190928 -1.224953 
				CHANNELS 3 Xrotation Yrotation Zrotation
				End Site
				{
					OFFSET 0.000000 -2.449906 4.627600 
				}
			}
		}
	}
}
MOTION
Frames: 18
Frame Time: 0.033333
-4.997703 47.353321 -4.636360 -84.205429 -1.425667 -14.681686 0.000000 0.000000 0.000000 63.055706 -7.835958 -0.161163 53.236240 -28.997589 -2.598799 -15.081985 24.036457 50.017517 40.572205 -15.955219 25.000000 -13.296699 -42.933308 -35.615452 -139.457840 -32.723572 39.922092 -51.102592 -7.769526 -45.774837 -10.407831 12.516839 25.000000 2.895310 11.506397 25.165649 -26.397570 -147.604507 -22.172712 30.296015 49.020947 -62.970001 21.376558 3.751859 17.455345 15.438699 4.394922 0.784334 25.283964 -13.147807 -1.884366 15.630924 -0.107482 0.870732 17.039572 -5.537041 -0.701168 36.073944 18.063057 -0.552608 
-5.018816 47.272610 -4.553741 -82.261292 -1.387262 -14.830294 0.000000 0.000000 0.000000 62.337215 -7.817736 -0.075268 51.937447 -29.198315 -2.606709 -14.883784 24.022476 50.368805 40.075424 -16.117313 25.000000 -11.985467 -41.278801 -35.669399 -137.785263 -31.741720 41.138943 -50.307438 -6.927447 -47.130833 -9.409467 12.757130 25.000000 3.177287 13.183826 24.585894 -28.673609 -147.471420 -23.639656 30.908041 48.924702 -62.940536 19.153650 4.278464 17.839211 15.904685 4.430055 0.759609 25.170578 -13.260753 -1.876526 13.111628 0.606089 1.080483 17.958115 -5.969861 -0.703049 35.726604 18.074442 -0.360199 
-4.992970 46.973854 -4.316022 -76.798744 -0.915794 -14.764209 0.000000 0.000000 0.000000 58.794556 -7.436795 0.428519 50.222561 -28.838188 -2.554980 -14.774179 23.790686 50.492599 38.910534 -16.022427 25.000000 -11.929910 -39.427547 -35.279755 -135.295639 -30.855656 44.968555 -49.576931 -6.552718 -47.808170 -8.142223 12.916457 25.000000 3.729498 16.480320 23.376936 -33.209553 -147.269455 -27.043489 33.126434 48.316521 -62.800175 11.931685 5.644713 18.840670 18.522657 4.589285 0.608259 24.500530 -13.824399 -1.232293 6.098300 1.717744 1.533374 20.144499 -6.175374 -0.581888 35.035309 17.670353 0.302893 
-4.865601 46.799728 -4.176838 -73.285370 0.376418 -13.860692 0.000000 0.000000 0.000000 56.391045 -7.275667 0.734428 49.689102 -27.075659 -2.390073 -14.919948 22.955921 49.898697 37.178490 -15.731417 25.000000 -13.739341 -39.871662 -34.803627 -133.550995 -31.631155 48.192665 -50.230640 -7.133216 -46.815178 -8.855638 13.147720 25.000000 3.838190 18.381216 22.594072 -36.018085 -147.121704 -28.661669 34.686363 47.410389 -63.077698 6.499087 5.134377 18.822693 20.432575 5.378475 0.662474 24.090788 -14.421077 -0.602009 1.390567 0.962935 1.417771 21.556862 -5.784124 -0.361991 34.382050 17.117466 1.115887 
-4.779606 46.814766 -4.066751 -71.170128 1.037965 -13.753520 0.000000 0.000000 0.000000 56.814365 -7.539590 0.628218 47.215004 -26.123955 -2.284207 -14.633016 22.557873 50.453175 35.652225 -15.505890 25.000000 -14.757033 -40.457897 -34.575390 -129.487213 -31.364143 54.171661 -50.573586 -8.038345 -45.428604 -8.030728 13.145933 25.000000 4.092215 21.579115 21.220238 -39.884518 -146.934174 -30.173231 40.700138 47.610279 -61.255035 3.335999 5.259090 18.893126 22.218927 5.211984 0.522170 23.346598 -14.270061 -0.320702 -1.541797 1.025274 1.497067 22.878160 -6.371423 -0.360226 33.644596 17.164246 1.716069 
-4.772830 46.943344 -4.036710 -71.175568 1.135661 -13.932758 0.000000 0.000000 0.000000 58.622265 -7.888927 0.343946 45.317337 -25.765160 -2.235205 -14.411942 22.397598 50.799011 34.742565 -15.542397 25.000000 -13.968460 -40.607765 -34.868805 -126.775536 -30.452259 56.921196 -50.102314 -8.198831 -45.341114 -7.159532 13.077584 25.000000 4.201029 23.450905 20.348232 137.830063 -33.501595 148.994049 41.895206 47.097454 -61.403229 3.384268 5.415165 18.947931 22.641882 4.714596 0.385663 22.974485 -14.023522 -0.198877 -1.697703 1.238841 1.592257 23.435791 -7.012236 -0.501695 33.165901 17.375145 1.973861 
-4.901737 47.103958 -3.946457 -69.975731 0.458192 -14.235475 0.000000 0.000000 0.000000 60.612198 -7.992283 0.096621 41.765793 -25.719221 -2.201081 -13.731878 22.423828 51.913826 33.678005 -15.523062 25.000000 -11.855559 -40.543404 -35.540020 -122.337761 -28.219790 60.309547 -48.733372 -8.228800 -45.837765 -4.973032 12.925198 25.000000 4.257035 26.443340 18.821102 134.182175 -34.060360 148.022751 41.701923 45.924927 -62.427616 2.457327 7.054257 19.538342 23.420261 3.893969 0.155037 22.453602 -14.080345 0.157632 -2.976335 3.034940 2.145672 24.415987 -8.245311 -0.683843 32.357464 17.290089 2.779193 
-4.999886 47.155251 -3.834295 -68.291016 0.003612 -14.257120 0.000000 0.000000 0.000000 60.787071 -7.878717 0.092790 39.611282 -25.607063 -2.173345 -13.249961 22.418684 52.722935 33.096329 -15.408673 25.000000 -10.446953 -40.506039 -35.986919 -119.812088 -26.880222 61.919231 -47.924587 -8.038360 -46.385254 -3.715180 12.912116 25.000000 3.924057 28.030380 17.834681 132.237885 -34.221832 147.747284 41.252316 45.249397 -63.060570 0.778477 8.244540 19.954798 23.997381 3.728080 0.071521 22.160376 -14.380453 0.362810 -4.722513 4.293287 2.553707 25.010559 -8.704100 -0.740544 31.904917 16.977497 3.358478 
-5.114760 47.198231 -3.578140 -65.033295 -0.461709 -14.350296 0.000000 0.000000 0.000000 60.558914 -7.817141 0.141673 35.794987 -25.101305 -2.099661 -12.226292 22.224558 54.236584 32.041916 -14.845822 25.000000 -8.279734 -40.693115 -36.700653 -115.760994 -24.746248 64.159584 -46.701813 -7.584924 -47.338551 -1.892963 12.636193 25.000000 3.130035 30.454000 16.111347 129.492905 -34.506241 147.562775 40.975418 44.300926 -63.813583 -3.574234 10.300019 20.583418 26.898630 3.600913 -0.139116 20.812357 -14.817525 0.763817 -8.470656 5.990562 3.188608 26.518328 -9.179493 -0.728365 30.985174 16.342583 4.293069 
-5.133741 47.237602 -3.399258 -63.401840 -0.441644 -14.430592 0.000000 0.000000 0.000000 60.701939 -7.985547 0.078648 33.499542 -24.500883 -2.032239 -11.634433 21.900705 55.042362 31.201271 -14.300605 25.000000 -7.114873 -40.964424 -37.113701 -113.414200 -23.477455 65.351059 -46.091194 -7.411093 -47.654743 -1.019572 12.321363 25.000000 2.512842 31.758078 15.043541 128.014969 -34.918030 147.298523 41.200905 43.784317 -64.119026 -6.004778 11.047445 20.739395 28.741453 3.635238 -0.250844 19.875357 -14.890743 0.839698 -10.653468 6.592158 3.430044 27.786669 -9.465899 -0.655830 30.252317 16.049702 4.829360 
-5.118147 47.335434 -3.080703 -60.957123 -0.075854 -14.336055 0.000000 0.000000 0.000000 61.144535 -8.243088 -0.025417 30.069675 -23.176832 -1.894610 -11.084218 21.165533 55.822277 29.497568 -13.374914 25.000000 -4.566584 -41.472103 -38.012306 -109.572014 -21.252787 66.969292 -45.235031 -7.256655 -47.922012 -0.022014 11.857137 24.894258 1.012421 33.743374 13.065435 125.361145 -35.922123 146.191498 41.921753 42.927574 -64.573288 -9.802109 11.613931 20.693851 31.549355 3.982394 -0.344102 18.376791 -14.954864 0.846073 -14.299082 7.183217 3.726962 30.414316 -10.083617 -0.548048 28.663120 15.498138 5.955503 
-5.115077 47.396935 -2.876558 -59.462910 0.039695 -14.168851 0.000000 0.000000 0.000000 61.357426 -8.238218 -0.053054 28.170448 -22.505928 -1.826094 -10.947174 20.779875 56.113762 28.580250 -12.974824 25.000000 -2.116174 -41.544399 -38.731331 -107.371880 -19.624720 67.399727 -44.664356 -6.974061 -48.264187 0.457084 11.508315 24.810064 -0.048352 35.078423 11.631824 123.453468 -36.428993 145.081070 42.344631 42.342857 -64.912125 -12.107079 11.967567 20.621077 33.161423 4.318748 -0.343663 17.532614 -15.051215 0.820193 -16.580076 7.645325 3.975892 32.130730 -10.458523 -0.489172 27.621899 15.014395 6.786533 
-5.136481 47.474663 -2.475551 -56.992443 -0.138316 -14.162075 0.000000 0.000000 0.000000 61.739113 -8.138913 -0.077988 24.740507 -21.874268 -1.749078 -10.519761 20.408285 56.885921 27.612930 -12.498051 25.000000 2.835814 -40.852222 -39.821205 -104.223625 -16.151695 66.956192 -43.730774 -6.378319 -48.928783 1.310815 10.442123 24.689573 -1.769601 37.782413 8.711343 119.831734 -36.789082 142.644104 42.726223 41.249985 -65.650864 -15.975884 13.055472 20.639841 36.257080 4.991852 -0.351258 15.815583 -15.294009 0.686617 -20.416235 8.835503 4.486431 35.289581 -10.938859 -0.270859 25.801521 13.977555 8.204282 
-5.117890 47.496986 -2.184316 -55.458988 0.011074 -14.029760 0.000000 0.000000 0.000000 61.877567 -8.122486 -0.082575 22.636189 -21.294292 -1.688521 -10.227188 20.085058 57.100510 26.828320 -12.117682 25.000000 5.271325 -40.361572 -40.240273 -102.652550 -14.019620 66.508759 -43.357590 -6.309585 -48.980873 1.280953 9.726933 24.710411 -2.976020 39.455006 6.688540 117.769615 -36.909939 141.074554 42.791149 40.625118 -66.105988 -18.728035 13.433860 20.447651 38.589218 5.469512 -0.382844 14.584909 -15.264648 0.536108 -22.923832 9.166706 4.689148 37.306171 -11.064625 -0.109170 24.667631 13.378139 8.933725 
-5.105860 47.551208 -1.611933 -53.300781 0.005836 -13.904315 0.000000 0.000000 0.000000 62.476143 -8.033021 -0.139504 19.066771 -20.539446 -1.605661 -9.693088 19.645346 57.564915 25.763556 -11.165786 25.000000 7.869420 -39.897125 -40.643433 -100.087234 -10.613417 66.096809 -42.491581 -6.952458 -48.516693 1.653528 8.707301 24.681860 -5.430113 41.547859 3.407675 115.161469 -37.423172 139.124130 43.439583 40.079243 -66.404884 -23.053043 14.565486 20.268322 43.120438 5.934193 -0.517856 12.255736 -15.330342 0.599238 -26.487379 9.918177 5.100286 40.599804 -11.339321 0.161694 22.736549 12.295481 10.233267 
-5.154683 47.598656 -1.222923 -52.239101 -0.496373 -14.056502 0.000000 0.000000 0.000000 63.018917 -7.888487 -0.176164 17.040100 -20.450771 -1.585487 -9.385552 19.602085 58.226612 25.572174 -10.454424 25.000000 8.949406 -39.605434 -40.765018 -98.303581 -8.603036 65.915504 -41.229839 -7.690259 -48.244232 2.535793 8.037295 24.604078 -6.888673 42.683140 1.429170 113.763016 -37.676384 138.351074 44.263432 39.952713 -66.380089 -25.248032 16.007793 20.471260 45.971615 6.031451 -0.665858 10.802791 -15.646808 0.941131 -28.228285 11.013673 5.496108 42.557751 -11.540506 0.320897 21.563412 11.430604 11.122788 
-5.260127 47.603977 -0.652391 -50.442688 -1.468210 -14.531984 0.000000 0.000000 0.000000 63.193825 -7.704873 -0.154821 14.690422 -20.522848 -1.589876 -9.055992 19.729719 59.472317 25.628315 -9.362361 25.000000 10.265676 -39.013294 -40.803711 -95.725906 -6.019226 65.229675 -39.146942 -8.498232 -48.245274 3.919329 6.749263 24.525827 -8.512277 44.735054 -1.728973 111.490089 -37.407158 137.316971 45.398827 39.600197 -66.449936 -28.464245 18.453556 20.841125 49.687294 6.323272 -0.782732 8.928631 -16.297386 1.365016 -31.041578 13.054707 6.250749 45.473598 -11.691826 0.591405 19.958605 9.939567 12.495000 
-5.396794 47.547924 0.136262 -47.813480 -2.684637 -15.303338 0.000000 0.000000 0.000000 62.784184 -7.540612 -0.067832 12.266160 -20.666498 -1.592542 -8.784525 20.096292 61.204224 25.482916 -7.963953 25.000000 11.911209 -37.700508 -40.611931 -92.506874 -2.877817 63.721493 -36.974514 -8.908298 -48.614388 4.863763 4.498939 24.620909 -10.137706 48.718887 -7.327976 107.598518 -35.350094 135.553864 45.874115 38.583633 -67.064926 -32.820724 21.306513 21.132603 53.977669 7.369848 -0.722365 6.637497 -17.052200 1.383062 -35.241203 15.759645 7.336990 49.429268 -11.575410 1.011878 18.001141 7.810742 14.239691 
